<svg id="图层_1" data-name="图层 1" xmlns="http://www.w3.org/2000/svg" xmlns:xlink="http://www.w3.org/1999/xlink" viewBox="0 0 32 32"><defs><style>.cls-1{fill:url(#未命名的渐变_23);}</style><linearGradient id="未命名的渐变_23" x1="0.97" y1="32.27" x2="32.96" y2="0.28" gradientUnits="userSpaceOnUse"><stop offset="0.19" stop-color="#fe9aff"/><stop offset="1" stop-color="#2ff"/></linearGradient></defs><path class="cls-1" d="M15.05,0h0c.11,0,.22.13.26.18A37.77,37.77,0,0,1,20,6.7c.5,1.07.22,1.66,0,1.87l0,0a49.07,49.07,0,0,0-7.86,10c-.12.21,0,.36.2.18,4.84-5.29,7.92-6.79,10.54-7.47l.06,0a9.78,9.78,0,0,1,3.45.2c1.79.25,3.55.56,5.33.81.08,0,.21,0,.26.16l0,.1c0,.15-.11.24-.18.29C24,18.61,15.8,21.47,14.48,23a.36.36,0,0,0-.07.4,16.81,16.81,0,0,0,2,2.16c2.69,2.71,4.24,3.65,5.5,3.83a2.39,2.39,0,0,0,1,0,.61.61,0,0,0,.37-.16c.1-.07.1-.07.19-.23.54-.89-.22-5.21-.16-7.83,0-.11,0-.25.08-.25h0s.09.07.1.16c1.05,7,1,6.82,1,7.69a1.78,1.78,0,0,1-.28,1.1c-2.35,3.23-7.32-.92-10-2.4a7,7,0,0,0-4.08-1h-.05a4,4,0,0,0-2.26,1.23A14.64,14.64,0,0,0,5,31.68c-.05.08-.17.32-.32.32H4.58c-.1,0-.21-.18-.22-.27-.59-6.63,1.48-13,4-19.15.06-.13,0-.22-.17-.22-4.71-.11-9.29-.41-4.86,5.09a.75.75,0,0,1,.14.26.2.2,0,0,1-.27.21C1.22,17.24-.34,14.27.06,12.56c0,0,0,0,0,0,1.09-2.77,7-3.25,9.75-3.64A.2.2,0,0,0,10,8.77,62.42,62.42,0,0,1,14.78.18S14.91,0,15.05,0Z" transform="translate(0)"/></svg>